<svg width="274" height="76" viewBox="0 0 274 76" fill="none" xmlns="http://www.w3.org/2000/svg">
<g clip-path="url(#clip0_1203_3719)">
<path d="M0.5 38C0.5 26.1962 0.5 20.2942 2.42839 15.6387C4.99958 9.43132 9.93131 4.49958 16.1387 1.92839C20.7942 0 26.6962 0 38.5 0C50.3037 0 56.2058 0 60.8614 1.92839C67.0687 4.49958 72.0005 9.43132 74.5715 15.6387C76.5 20.2942 76.5 26.1962 76.5 38C76.5 49.8038 76.5 55.7058 74.5715 60.3614C72.0005 66.5687 67.0687 71.5005 60.8614 74.0715C56.2058 76 50.3037 76 38.5 76C26.6962 76 20.7942 76 16.1387 74.0715C9.93131 71.5005 4.99958 66.5687 2.42839 60.3614C0.5 55.7058 0.5 49.8038 0.5 38Z" fill="#234153"/>
<path fill-rule="evenodd" clip-rule="evenodd" d="M57.5 38C57.5 48.4934 48.9934 57 38.5 57C28.0066 57 19.5 48.4934 19.5 38C19.5 27.5066 28.0066 19 38.5 19C48.9934 19 57.5 27.5066 57.5 38ZM38.5 50.2444C45.2624 50.2444 50.7444 44.7624 50.7444 38C50.7444 31.2376 45.2624 25.7556 38.5 25.7556C31.7376 25.7556 26.2556 31.2376 26.2556 38C26.2556 44.7624 31.7376 50.2444 38.5 50.2444Z" fill="white"/>
<mask id="mask0_1203_3719" style="mask-type:alpha" maskUnits="userSpaceOnUse" x="10" y="10" width="57" height="56">
<path fill-rule="evenodd" clip-rule="evenodd" d="M66.5 38C66.5 53.464 53.964 66 38.5 66C23.036 66 10.5 53.464 10.5 38C10.5 22.536 23.036 10 38.5 10C53.964 10 66.5 22.536 66.5 38ZM38.5 56.0444C48.4657 56.0444 56.5444 47.9657 56.5444 38C56.5444 28.0343 48.4657 19.9556 38.5 19.9556C28.5343 19.9556 20.4556 28.0343 20.4556 38C20.4556 47.9657 28.5343 56.0444 38.5 56.0444Z" fill="#FF0000"/>
</mask>
<g mask="url(#mask0_1203_3719)">
<path d="M12.7581 6.38721L70.239 63.8681L64.4909 69.6162L7.01001 12.1353L12.7581 6.38721Z" fill="white"/>
<path d="M6.88721 63.7421L64.3681 6.26123L70.1162 12.0093L12.6353 69.4902L6.88721 63.7421Z" fill="white"/>
</g>
<mask id="mask1_1203_3719" style="mask-type:alpha" maskUnits="userSpaceOnUse" x="17" y="17" width="43" height="42">
<mask id="mask2_1203_3719" style="mask-type:alpha" maskUnits="userSpaceOnUse" x="17" y="17" width="43" height="42">
<path fill-rule="evenodd" clip-rule="evenodd" d="M59.2742 37.9998C59.2742 49.4731 49.9733 58.774 38.5 58.774C27.0267 58.774 17.7258 49.4731 17.7258 37.9998C17.7258 26.5266 27.0267 17.2256 38.5 17.2256C49.9733 17.2256 59.2742 26.5266 59.2742 37.9998ZM38.5 53.0432C46.8082 53.0432 53.5434 46.3081 53.5434 37.9998C53.5434 29.6916 46.8082 22.9564 38.5 22.9564C30.1918 22.9564 23.4566 29.6916 23.4566 37.9998C23.4566 46.3081 30.1918 53.0432 38.5 53.0432Z" fill="white"/>
</mask>
<g mask="url(#mask2_1203_3719)">
<path fill-rule="evenodd" clip-rule="evenodd" d="M59.2742 37.9998C59.2742 49.4731 49.9733 58.774 38.5 58.774C27.0267 58.774 17.7258 49.4731 17.7258 37.9998C17.7258 26.5266 27.0267 17.2256 38.5 17.2256C49.9733 17.2256 59.2742 26.5266 59.2742 37.9998ZM38.5 53.0432C46.8082 53.0432 53.5434 46.3081 53.5434 37.9998C53.5434 29.6916 46.8082 22.9564 38.5 22.9564C30.1918 22.9564 23.4566 29.6916 23.4566 37.9998C23.4566 46.3081 30.1918 53.0432 38.5 53.0432Z" fill="white"/>
</g>
</mask>
<g mask="url(#mask1_1203_3719)">
<path d="M10.5 38C10.5 22.536 23.036 10 38.5 10C53.964 10 66.5 22.536 66.5 38C66.5 53.464 53.964 66 38.5 66C23.036 66 10.5 53.464 10.5 38Z" fill="white"/>
</g>
<path d="M103.219 46.8881C103.909 46.8881 104.582 46.8881 105.238 46.8881C105.894 46.8536 106.463 46.8017 106.947 46.7326V41.1355C106.532 41.0664 106.032 41.0144 105.445 40.9799C104.858 40.9108 104.323 40.8763 103.84 40.8763C103.184 40.8763 102.545 40.9281 101.924 41.0317C101.303 41.1008 100.75 41.2391 100.267 41.4464C99.8183 41.6537 99.4558 41.9474 99.1796 42.3274C98.9035 42.7075 98.7654 43.2084 98.7654 43.8303C98.7654 44.9359 99.1796 45.7307 100.008 46.2144C100.837 46.6635 101.907 46.8881 103.219 46.8881ZM102.649 26.4688C104.651 26.4688 106.308 26.7106 107.62 27.1943C108.966 27.6435 110.036 28.3 110.83 29.1637C111.624 29.9929 112.194 31.0294 112.539 32.2733C112.884 33.4825 113.057 34.8473 113.057 36.3675V50.8787C112.125 51.086 110.744 51.3277 108.914 51.6041C107.085 51.8805 105.031 52.0187 102.752 52.0187C101.199 52.0187 99.7838 51.8805 98.5065 51.6041C97.2638 51.3277 96.1937 50.8787 95.2961 50.2568C94.3986 49.6003 93.7082 48.7711 93.2249 47.7691C92.7416 46.7326 92.5 45.4715 92.5 43.9859C92.5 42.5693 92.7762 41.3773 93.3285 40.4099C93.8808 39.4425 94.623 38.6651 95.555 38.0777C96.4871 37.4904 97.5572 37.0758 98.7654 36.8339C99.9736 36.5575 101.234 36.4193 102.545 36.4193C104.202 36.4193 105.669 36.5575 106.947 36.8339V36.0564C106.947 34.8472 106.567 33.8452 105.808 33.0505C105.048 32.2213 103.736 31.8068 101.872 31.8068C100.664 31.8068 99.4903 31.8932 98.3512 32.066C97.2465 32.2387 96.349 32.446 95.6586 32.6879L94.7783 27.5571C95.5723 27.2807 96.6942 27.0389 98.144 26.8316C99.5939 26.5897 101.096 26.4688 102.649 26.4688Z" fill="white"/>
<path d="M124.707 39.4769C124.707 41.7227 125.07 43.4675 125.795 44.7113C126.554 45.9206 127.693 46.5252 129.212 46.5252C129.937 46.5252 130.61 46.4388 131.232 46.2661C131.887 46.0933 132.457 45.8688 132.94 45.5924V32.2213C132.63 32.1868 132.198 32.1522 131.646 32.1177C131.128 32.0486 130.576 32.014 129.989 32.014C128.228 32.014 126.899 32.7223 126.002 34.1389C125.139 35.5209 124.707 37.3003 124.707 39.4769ZM118.235 39.2696C118.235 37.4039 118.494 35.6937 119.011 34.1389C119.529 32.5496 120.271 31.2021 121.238 30.0965C122.239 28.9909 123.465 28.1271 124.914 27.5052C126.399 26.8833 128.073 26.5723 129.937 26.5723C130.731 26.5723 131.56 26.6069 132.423 26.676C133.32 26.7451 134.183 26.8487 135.012 26.9869C135.84 27.0906 136.617 27.2288 137.342 27.4015C138.101 27.5398 138.757 27.6952 139.309 27.868V59.9999H132.94V50.7749C132.146 51.155 131.301 51.4487 130.403 51.656C129.54 51.8978 128.712 52.0187 127.918 52.0187C126.33 52.0187 124.932 51.7251 123.723 51.1377C122.515 50.5158 121.497 49.652 120.668 48.5464C119.874 47.4408 119.27 46.1106 118.856 44.5558C118.442 42.9665 118.235 41.2045 118.235 39.2696Z" fill="white"/>
<path d="M165.717 50.6197C164.544 50.9306 163.111 51.2416 161.419 51.5525C159.763 51.8635 157.95 52.0189 155.983 52.0189C153.98 52.0189 152.341 51.7425 151.063 51.1897C149.786 50.6369 148.768 49.8595 148.008 48.8576C147.283 47.8211 146.783 46.6118 146.507 45.2298C146.231 43.8478 146.093 42.3275 146.093 40.6691V27.0908H152.461V39.8399C152.461 42.0857 152.72 43.7614 153.238 44.867C153.791 45.9381 154.843 46.4736 156.397 46.4736C157.363 46.4736 158.33 46.3872 159.296 46.2145V27.0908H165.717V50.6197Z" fill="white"/>
<path d="M184.151 20.0942C184.151 21.338 183.754 22.3227 182.96 23.0483C182.166 23.7739 181.217 24.1366 180.112 24.1366C179.007 24.1366 178.058 23.7739 177.264 23.0483C176.505 22.3227 176.125 21.338 176.125 20.0942C176.125 18.8159 176.505 17.8139 177.264 17.0883C178.058 16.3628 179.007 16 180.112 16C181.217 16 182.166 16.3628 182.96 17.0883C183.754 17.8139 184.151 18.8159 184.151 20.0942ZM193.627 50.4122C192.315 51.0342 191.072 51.4488 189.899 51.6561C188.759 51.8979 187.707 52.0188 186.74 52.0188C185.083 52.0188 183.685 51.777 182.546 51.2933C181.441 50.8096 180.544 50.1186 179.853 49.2203C179.197 48.2874 178.731 47.1645 178.455 45.8516C178.179 44.5387 178.041 43.0357 178.041 41.3428V32.3769H171.309V27.0907H184.41V42.172C184.41 43.6231 184.669 44.7114 185.187 45.437C185.739 46.128 186.636 46.4735 187.879 46.4735C188.466 46.4735 189.174 46.4044 190.002 46.2662C190.831 46.0934 191.763 45.7652 192.798 45.2815L193.627 50.4122Z" fill="white"/>
<path d="M217.406 34.5657C216.992 34.4621 216.491 34.3584 215.904 34.2548C215.352 34.1511 214.782 34.0648 214.195 33.9957C213.609 33.892 213.039 33.8229 212.487 33.7884C211.934 33.7538 211.468 33.7365 211.089 33.7365C210.191 33.7365 209.311 33.7884 208.448 33.892C207.585 33.9611 206.705 34.1166 205.807 34.3584V52.4456H199.386V29.6941C201.078 29.0722 202.804 28.5712 204.564 28.1912C206.359 27.8111 208.448 27.6211 210.83 27.6211C211.175 27.6211 211.658 27.6384 212.28 27.6729C212.935 27.7075 213.626 27.7766 214.351 27.8802C215.076 27.9493 215.801 28.053 216.526 28.1912C217.285 28.2948 217.958 28.4503 218.545 28.6576L217.406 34.5657Z" fill="white"/>
<path d="M222.791 40.4736C222.791 38.3315 223.119 36.4485 223.775 34.8246C224.431 33.2007 225.294 31.8532 226.364 30.7822C227.434 29.6766 228.659 28.8474 230.04 28.2945C231.421 27.7417 232.836 27.4653 234.286 27.4653C237.876 27.4653 240.603 28.5364 242.467 30.6785C244.332 32.7861 245.264 35.8784 245.264 39.9553C245.264 40.3699 245.246 40.8018 245.212 41.251C245.212 41.7001 245.195 42.0629 245.16 42.3393H229.367C229.367 43.9286 230.023 45.1897 231.335 46.1226C232.646 47.0209 234.338 47.47 236.409 47.47C237.686 47.47 238.895 47.3318 240.034 47.0554C241.207 46.779 242.191 46.5026 242.985 46.2262L243.866 51.6679C242.761 52.048 241.587 52.3589 240.344 52.6008C239.102 52.8772 237.704 53.0154 236.15 53.0154C234.079 53.0154 232.215 52.7563 230.558 52.238C228.936 51.6852 227.538 50.8905 226.364 49.854C225.225 48.783 224.344 47.47 223.723 45.9153C223.102 44.3605 222.791 42.5466 222.791 40.4736ZM239.102 37.9341C239.102 37.2777 239.015 36.6558 238.843 36.0684C238.67 35.4465 238.394 34.8937 238.014 34.41C237.635 33.9263 237.151 33.5462 236.565 33.2698C235.978 32.9589 235.253 32.8034 234.39 32.8034C233.561 32.8034 232.836 32.9416 232.215 33.218C231.628 33.4944 231.128 33.8744 230.713 34.3581C230.334 34.8419 230.023 35.3947 229.781 36.0166C229.574 36.6385 229.436 37.2777 229.367 37.9341H239.102Z" fill="white"/>
<path d="M260.746 35.7058L265.717 28.0874H272.189L264.319 39.8C265.147 40.802 265.958 41.8731 266.752 43.0132C267.546 44.1189 268.306 45.2417 269.031 46.3819C269.756 47.5221 270.412 48.6104 270.998 49.6469C271.585 50.6834 272.086 51.6163 272.5 52.4455H265.872C264.94 50.6834 264.008 49.1114 263.076 47.7294C262.144 46.3474 261.264 45.1035 260.435 43.9979C259.4 45.3799 258.468 46.7274 257.639 48.0403C256.811 49.3532 255.965 50.8216 255.102 52.4455H248.629C249.147 51.4781 249.734 50.4761 250.39 49.4396C251.08 48.3686 251.788 47.2975 252.513 46.2264C253.272 45.1208 254.049 44.0325 254.843 42.9614C255.671 41.8903 256.465 40.8711 257.225 39.9037L248.681 28.0874H255.361L260.746 35.7058Z" fill="white"/>
</g>
<defs>
<clipPath id="clip0_1203_3719">
<rect width="273" height="76" fill="white" transform="translate(0.5)"/>
</clipPath>
</defs>
</svg>
