<svg width="24" height="24" viewBox="0 0 24 24" fill="none" xmlns="http://www.w3.org/2000/svg">
<path fill-rule="evenodd" clip-rule="evenodd" d="M6 6.75H3C2.60218 6.75 2.22064 6.90804 1.93934 7.18934C1.65804 7.47064 1.5 7.85218 1.5 8.25V17.25H3V13.5H6V17.25H7.5V8.25C7.5 7.85218 7.34196 7.47064 7.06066 7.18934C6.77936 6.90804 6.39782 6.75 6 6.75ZM3 12V8.25H6V12H3ZM16.5 8.25H18.75V15.75H16.5V17.25H22.5V15.75H20.25V8.25H22.5V6.75H16.5V8.25ZM9 17.25H10.5V13.5H13.5C13.8978 13.5 14.2794 13.342 14.5607 13.0607C14.842 12.7794 15 12.3978 15 12V8.25C15 7.85218 14.842 7.47064 14.5607 7.18934C14.2794 6.90804 13.8978 6.75 13.5 6.75H9V17.25ZM13.5 12H10.5V8.25H13.5V12Z" fill="#616161"/>
</svg>
