<svg width="24" height="24" viewBox="0 0 24 24" fill="none" xmlns="http://www.w3.org/2000/svg">
<path d="M3.43942 21L8.82315 16.5015L14.8183 17.955C15.1477 18.036 15.4947 18.0041 15.8039 17.8646L21 15.4358L20.3641 14.0767L15.1768 16.4985L9.18165 15.045C8.95667 14.989 8.72178 14.9859 8.49539 15.0358C8.26899 15.0858 8.05722 15.1874 7.87665 15.3328L3 19.4114V15.3675L8.82315 10.5017L14.8183 11.955C15.1477 12.036 15.4947 12.0041 15.8039 11.8645L21.0004 9.43583L20.3653 8.07683L15.1768 10.4982L9.18165 9.045C8.95666 8.98914 8.7218 8.98605 8.49542 9.03598C8.26903 9.08592 8.05726 9.18752 7.87665 9.33285L3 13.4114V9.3675L8.82315 4.5015L14.8183 5.955C15.1477 6.03596 15.4947 6.00411 15.8039 5.86455L21 3.43942L20.3657 2.0808L15.1768 4.4985L9.18165 3.045C8.95667 2.98904 8.72178 2.98591 8.49539 3.03585C8.26899 3.08579 8.05722 3.18744 7.87665 3.33285L3 7.41135V1.5H1.5V21C1.5 21.3978 1.65804 21.7794 1.93934 22.0607C2.22064 22.342 2.60218 22.5 3 22.5H22.5V21H3.43942Z" fill="#0BA39A"/>
</svg>
