<svg width="42" height="42" viewBox="0 0 42 42" fill="none" xmlns="http://www.w3.org/2000/svg">
<g clip-path="url(#clip0_1203_5291)">
<path d="M0 21C0 14.4768 0 11.2152 1.06569 8.64243C2.48661 5.21204 5.21204 2.48661 8.64243 1.06569C11.2152 0 14.4768 0 21 0C27.5231 0 30.7848 0 33.3576 1.06569C36.788 2.48661 39.5134 5.21204 40.9342 8.64243C42 11.2152 42 14.4768 42 21C42 27.5231 42 30.7848 40.9342 33.3576C39.5134 36.788 36.788 39.5134 33.3576 40.9342C30.7848 42 27.5231 42 21 42C14.4768 42 11.2152 42 8.64243 40.9342C5.21204 39.5134 2.48661 36.788 1.06569 33.3576C0 30.7848 0 27.5231 0 21Z" fill="#234153"/>
<path d="M11.3493 21C11.3493 20.0478 11.4779 19.1341 11.7353 18.2591C11.9926 17.3842 12.3658 16.5735 12.8548 15.8272L10.5 13.4724L13.4724 10.5L15.8272 12.8548C16.5735 12.3915 17.3713 12.0313 18.2207 11.7739C19.0956 11.4908 20.0221 11.3493 21 11.3493C21.9522 11.3493 22.8658 11.4908 23.7408 11.7739C24.6158 12.0313 25.4264 12.3915 26.1728 12.8548L28.5276 10.5L31.5 13.4724L29.1452 15.8272C29.6084 16.5735 29.9688 17.3842 30.2262 18.2591C30.5092 19.1341 30.6507 20.0478 30.6507 21C30.6507 21.9779 30.5092 22.9043 30.2262 23.7793C29.9688 24.6286 29.6084 25.4264 29.1452 26.1728L31.5 28.5276L28.5276 31.5L26.1728 29.1452C25.4264 29.6341 24.6158 30.0074 23.7408 30.2647C22.8658 30.5221 21.9522 30.6507 21 30.6507C20.0221 30.6507 19.0956 30.5221 18.2207 30.2647C17.3713 30.0074 16.5735 29.6341 15.8272 29.1452L13.4724 31.5L10.5 28.5276L12.8548 26.1728C12.3658 25.4264 11.9926 24.6286 11.7353 23.7793C11.4779 22.9043 11.3493 21.9779 11.3493 21ZM15.5184 21C15.5184 21.7721 15.6599 22.4926 15.943 23.1618C16.2261 23.8308 16.6121 24.4099 17.1011 24.8988C17.5901 25.3879 18.1692 25.7738 18.8382 26.057C19.5074 26.3401 20.2279 26.4817 21 26.4817C21.7721 26.4817 22.4926 26.3401 23.1618 26.057C23.8308 25.7738 24.4099 25.3879 24.8988 24.8988C25.3879 24.4099 25.7738 23.8308 26.057 23.1618C26.3401 22.4926 26.4817 21.7721 26.4817 21C26.4817 20.2279 26.3401 19.5074 26.057 18.8382C25.7738 18.1692 25.3879 17.5901 24.8988 17.1011C24.4099 16.6121 23.8308 16.2261 23.1618 15.943C22.4926 15.6599 21.7721 15.5184 21 15.5184C20.2279 15.5184 19.5074 15.6599 18.8382 15.943C18.1692 16.2261 17.5901 16.6121 17.1011 17.1011C16.6121 17.5901 16.2261 18.1692 15.943 18.8382C15.6599 19.5074 15.5184 20.2279 15.5184 21Z" fill="white"/>
</g>
<defs>
<clipPath id="clip0_1203_5291">
<rect width="42" height="42" fill="white"/>
</clipPath>
</defs>
</svg>
