<svg width="24" height="24" viewBox="0 0 24 24" fill="none" xmlns="http://www.w3.org/2000/svg">
<path fill-rule="evenodd" clip-rule="evenodd" d="M20.2499 11.9996V12.5696L21.6674 13.8671C21.9291 14.0965 22.1029 14.4097 22.159 14.7532C22.2151 15.0966 22.15 15.4488 21.9749 15.7496L20.2649 18.7496C20.1334 18.9774 19.9443 19.1666 19.7166 19.2982C19.4888 19.4299 19.2305 19.4993 18.9674 19.4996C18.8044 19.5008 18.6423 19.4755 18.4874 19.4246L16.6724 18.8096C16.3552 19.0187 16.0245 19.2066 15.6824 19.3721L15.2999 21.2621C15.2314 21.6074 15.0435 21.9175 14.7693 22.1383C14.4951 22.3591 14.1519 22.4763 13.7999 22.4696H10.2599C9.90797 22.4763 9.56483 22.3591 9.2906 22.1383C9.01638 21.9175 8.82853 21.6074 8.75995 21.2621L8.37745 19.3721C8.03783 19.2066 7.7096 19.0187 7.39495 18.8096L5.57245 19.4246C5.41758 19.4755 5.25546 19.5008 5.09245 19.4996C4.8294 19.4993 4.57105 19.4299 4.34332 19.2982C4.11558 19.1666 3.92647 18.9774 3.79495 18.7496L2.02495 15.7496C1.84187 15.4459 1.7723 15.0871 1.82859 14.737C1.88489 14.3869 2.0634 14.0681 2.33245 13.8371L3.74995 12.5771V11.9996V11.4296L2.33245 10.1321C2.07079 9.90267 1.89703 9.58943 1.84093 9.246C1.78483 8.90257 1.84989 8.55031 2.02495 8.24957L3.79495 5.24957C3.92647 5.02177 4.11558 4.83256 4.34332 4.70092C4.57105 4.56928 4.8294 4.49984 5.09245 4.49957C5.25383 4.48859 5.41592 4.50379 5.57245 4.54457L7.35745 5.18957C7.67467 4.98043 8.0054 4.79252 8.34745 4.62707L8.72995 2.73707C8.79853 2.39178 8.98638 2.0816 9.2606 1.86085C9.53483 1.6401 9.87797 1.52283 10.2299 1.52957H13.7399C14.0919 1.52283 14.4351 1.6401 14.7093 1.86085C14.9835 2.0816 15.1714 2.39178 15.2399 2.73707L15.6224 4.62707C15.9621 4.79256 16.2903 4.98048 16.6049 5.18957L18.4274 4.57457C18.5823 4.52366 18.7444 4.49832 18.9074 4.49957C19.1705 4.49984 19.4288 4.56928 19.6566 4.70092C19.8843 4.83256 20.0734 5.02177 20.2049 5.24957L21.9749 8.24957C22.1606 8.55076 22.2339 8.9079 22.1817 9.25787C22.1296 9.60784 21.9554 9.92811 21.6899 10.1621L20.2499 11.4221V11.9996ZM16.3349 17.1296L18.9074 17.9996L20.6774 14.9996L18.6374 13.1471C18.7761 12.3707 18.7761 11.5759 18.6374 10.7996L20.6774 8.99957L18.9074 5.99957L16.3274 6.83957C15.7232 6.33643 15.0386 5.93839 14.3024 5.66207L13.7699 2.99957H10.2299L9.69745 5.69207C8.9554 5.96076 8.26715 6.35949 7.66495 6.86957L5.09245 5.99957L3.32245 8.99957L5.36245 10.8521C5.22377 11.6284 5.22377 12.4232 5.36245 13.1996L3.32245 14.9996L5.09245 17.9996L7.67245 17.1596C8.27673 17.6627 8.96126 18.0608 9.69745 18.3371L10.2299 20.9996H13.7699L14.3024 18.3071C15.0445 18.0384 15.7327 17.6397 16.3349 17.1296ZM9.49987 15.7412C10.2399 16.2357 11.1099 16.4996 11.9999 16.4996C12.5926 16.5057 13.1804 16.3934 13.7291 16.1693C14.2778 15.9453 14.7763 15.6141 15.1953 15.195C15.6144 14.776 15.9456 14.2775 16.1697 13.7288C16.3937 13.1801 16.506 12.5923 16.4999 11.9996C16.4999 11.1096 16.236 10.2396 15.7416 9.49957C15.2471 8.75955 14.5443 8.18277 13.722 7.84218C12.8997 7.50158 11.9949 7.41247 11.122 7.5861C10.2491 7.75974 9.4473 8.18832 8.81796 8.81766C8.18862 9.44699 7.76004 10.2488 7.58641 11.1217C7.41277 11.9946 7.50189 12.8994 7.84248 13.7217C8.18308 14.544 8.75985 15.2468 9.49987 15.7412ZM10.8411 9.20918C11.2092 9.06168 11.6034 8.9904 11.9999 8.99964C12.3964 8.9904 12.7907 9.06168 13.1588 9.20918C13.527 9.35667 13.8614 9.57731 14.1418 9.85775C14.4223 10.1382 14.6429 10.4726 14.7904 10.8407C14.9379 11.2089 15.0092 11.6031 14.9999 11.9996C15.0092 12.3961 14.9379 12.7904 14.7904 13.1585C14.6429 13.5267 14.4223 13.8611 14.1418 14.1415C13.8614 14.422 13.527 14.6426 13.1588 14.7901C12.7907 14.9376 12.3964 15.0089 11.9999 14.9996C11.6034 15.0089 11.2092 14.9376 10.8411 14.7901C10.4729 14.6426 10.1385 14.422 9.85805 14.1415C9.57762 13.8611 9.35698 13.5267 9.20948 13.1585C9.06199 12.7904 8.9907 12.3961 8.99994 11.9996C8.9907 11.6031 9.06199 11.2089 9.20948 10.8407C9.35698 10.4726 9.57762 10.1382 9.85805 9.85775C10.1385 9.57731 10.4729 9.35667 10.8411 9.20918Z" fill="#585858"/>
</svg>
